<?xml version="1.0" standalone="no"?>
<!DOCTYPE svg PUBLIC "-//W3C//DTD SVG 20010904//EN"
 "http://www.w3.org/TR/2001/REC-SVG-20010904/DTD/svg10.dtd">
<svg version="1.0" xmlns="http://www.w3.org/2000/svg"
 width="392.000000pt" height="392.000000pt" viewBox="0 0 392.000000 392.000000"
 preserveAspectRatio="xMidYMid meet">
<metadata>
Created by potrace 1.11, written by Peter Selinger 2001-2013
</metadata>
<g transform="translate(0.000000,392.000000) scale(0.100000,-0.100000)"
fill="#000000" stroke="none">
<path d="M0 2491 l0 -1409 118 -72 c64 -40 133 -83 152 -95 19 -13 73 -46 120
-75 47 -29 101 -62 120 -75 19 -12 130 -81 245 -152 116 -72 314 -194 440
-273 127 -79 242 -150 257 -159 77 -46 206 -127 227 -143 13 -10 28 -18 32
-18 5 0 9 365 9 819 l0 818 -92 60 c-51 32 -156 99 -233 147 -77 48 -206 130
-287 182 l-148 93 0 -272 1 -272 112 -65 c61 -36 124 -71 139 -79 l28 -13 0
-224 c0 -123 -2 -224 -4 -224 -2 0 -154 91 -337 203 l-334 202 -3 748 c-1 412
1 747 5 745 5 -1 41 -23 81 -48 40 -25 81 -49 90 -55 53 -30 168 -100 172
-105 3 -3 16 -11 30 -19 43 -25 771 -468 860 -524 30 -19 80 -48 110 -65 l55
-31 130 81 c136 84 606 371 653 399 15 9 88 53 162 99 74 45 198 121 275 167
77 47 144 89 150 94 5 5 13 9 17 9 4 0 7 -336 6 -747 l-3 -748 -110 -67 c-60
-37 -133 -81 -160 -97 -28 -16 -128 -77 -224 -135 -96 -58 -175 -106 -177
-106 -2 0 -4 100 -4 223 l1 222 137 80 137 80 3 268 c1 147 0 267 -3 267 -9 0
-103 -59 -560 -349 l-195 -123 0 -819 c0 -451 2 -819 5 -819 2 0 39 22 82 49
43 27 148 91 233 144 85 52 187 115 225 140 39 24 230 143 425 264 195 121
444 275 553 342 l197 123 0 1409 0 1410 -22 -12 c-13 -7 -72 -44 -133 -84 -60
-39 -182 -117 -270 -174 -227 -146 -651 -419 -775 -500 -105 -68 -248 -161
-390 -252 -41 -26 -142 -91 -223 -144 -126 -83 -150 -95 -163 -84 -9 7 -25 18
-35 24 -11 5 -134 84 -274 175 -140 91 -294 190 -342 221 -49 31 -158 102
-243 157 -85 55 -261 169 -390 252 -129 83 -304 196 -388 251 -85 54 -158 99
-162 99 -5 0 -10 3 -12 8 -3 8 -84 62 -93 62 -3 0 -5 -634 -5 -1409z"/>
</g>
</svg>
